<svg width="14" height="14" viewBox="0 0 14 14" fill="none" xmlns="http://www.w3.org/2000/svg">
<path d="M12.9632 5.31485H11.6846C11.4791 5.31485 11.3097 5.20172 11.231 5.0119C11.1523 4.82208 11.1923 4.62214 11.3373 4.47687L12.2414 3.57309C12.3742 3.44022 12.4474 3.26332 12.4474 3.07552C12.4474 2.88748 12.3742 2.71082 12.2414 2.5777L11.089 1.42539C10.8233 1.15965 10.3599 1.15914 10.0937 1.42539L9.18987 2.32917C9.0446 2.47419 8.84416 2.51468 8.65485 2.43572C8.46503 2.35701 8.3519 2.18769 8.3519 1.98218V0.703584C8.3519 0.315601 8.0363 0 7.64832 0H6.01843C5.63045 0 5.31485 0.315601 5.31485 0.703584V1.98218C5.31485 2.18769 5.20172 2.35701 5.0119 2.43572C4.82259 2.51493 4.62214 2.47419 4.47687 2.32917L3.57309 1.42539C3.30685 1.15914 2.84344 1.15965 2.5777 1.42539L1.42539 2.5777C1.29252 2.71057 1.21938 2.88748 1.21938 3.07552C1.21938 3.26332 1.29252 3.43997 1.42539 3.57309L2.32942 4.47687C2.47444 4.62214 2.51417 4.82208 2.43572 5.0119C2.35726 5.20172 2.18769 5.31485 1.98218 5.31485H0.703584C0.315601 5.31485 0 5.63045 0 6.01843V7.64806C0 8.0363 0.315601 8.3519 0.703584 8.3519H1.98218C2.18769 8.3519 2.35701 8.46503 2.43572 8.65485C2.51443 8.84466 2.47444 9.0446 2.32942 9.18987L1.42539 10.0937C1.29252 10.2265 1.21938 10.4034 1.21938 10.5912C1.21938 10.7793 1.29252 10.9559 1.42539 11.089L2.5777 12.2414C2.8437 12.5073 3.30685 12.5079 3.57309 12.2414L4.47687 11.3373C4.62214 11.1923 4.82183 11.1523 5.0119 11.231C5.20172 11.3097 5.31485 11.4791 5.31485 11.6846V12.9632C5.31485 13.3511 5.63045 13.6667 6.01843 13.6667H7.64806C8.03605 13.6667 8.35165 13.3511 8.35165 12.9632V11.6846C8.35165 11.4791 8.46478 11.3097 8.65459 11.231C8.84466 11.1521 9.04435 11.1923 9.18962 11.3373L10.0934 12.2414C10.3596 12.5076 10.823 12.5071 11.0888 12.2414L12.2411 11.089C12.374 10.9562 12.4471 10.7793 12.4471 10.5912C12.4471 10.4034 12.374 10.2268 12.2411 10.0937L11.3371 9.18987C11.1921 9.0446 11.1523 8.84466 11.2308 8.65485C11.3092 8.46503 11.4791 8.3519 11.6846 8.3519H12.9632C13.3511 8.3519 13.6667 8.0363 13.6667 7.64832V6.01843C13.6667 5.63045 13.3511 5.31485 12.9632 5.31485ZM13.1606 7.64832C13.1606 7.75714 13.072 7.84572 12.9632 7.84572H11.6846C11.2735 7.84572 10.9205 8.0816 10.7633 8.46123C10.6059 8.84087 10.6887 9.25745 10.9795 9.54799L11.8835 10.4518C11.9607 10.529 11.9607 10.6542 11.8835 10.7312L10.7312 11.8835C10.6542 11.9604 10.529 11.9609 10.4518 11.8835L9.54799 10.9795C9.2572 10.6887 8.84087 10.6064 8.46123 10.7633C8.0816 10.9205 7.84572 11.2735 7.84572 11.6846V12.9632C7.84572 13.072 7.75714 13.1606 7.64832 13.1606H6.01843C5.9096 13.1606 5.82102 13.072 5.82102 12.9632V11.6846C5.82102 11.2735 5.58514 10.9205 5.20551 10.7633C5.07821 10.7104 4.94711 10.6846 4.81753 10.6846C4.5609 10.6846 4.31211 10.7858 4.11875 10.9792L3.21498 11.8832C3.13753 11.9607 3.01225 11.9602 2.93557 11.8832L1.78326 10.7309C1.70607 10.6537 1.70607 10.5285 1.78326 10.4515L2.68729 9.54774C2.97783 9.25719 3.06084 8.84061 2.90342 8.46098C2.74626 8.0816 2.3932 7.84572 1.98218 7.84572H0.703584C0.594757 7.84572 0.506176 7.75714 0.506176 7.64832V6.01843C0.506176 5.9096 0.594757 5.82102 0.703584 5.82102H1.98218C2.3932 5.82102 2.74626 5.58514 2.90342 5.20551C3.06084 4.82588 2.97809 4.4093 2.68729 4.11875L1.78326 3.21498C1.70607 3.13778 1.70607 3.01251 1.78326 2.93557L2.93557 1.78326C3.01251 1.70607 3.13778 1.70607 3.21498 1.78326L4.11875 2.68703C4.40904 2.97733 4.82537 3.06059 5.20551 2.90317C5.58514 2.74626 5.82102 2.3932 5.82102 1.98218V0.703584C5.82102 0.594757 5.9096 0.506176 6.01843 0.506176H7.64806C7.75714 0.506176 7.84572 0.594757 7.84572 0.703584V1.98218C7.84572 2.3932 8.0816 2.74626 8.46123 2.90342C8.84137 3.06084 9.25745 2.97783 9.54799 2.68729L10.4518 1.78351C10.5292 1.70632 10.6545 1.70632 10.7312 1.78351L11.8835 2.93582C11.9607 3.01301 11.9607 3.13829 11.8835 3.21523L10.9795 4.11901C10.6889 4.40955 10.6059 4.82613 10.7633 5.20576C10.9205 5.5854 11.2735 5.82127 11.6846 5.82127H12.9632C13.072 5.82102 13.1606 5.9096 13.1606 6.01843V7.64832Z" fill="#F3F3F3"/>
<path d="M6.83339 4.55559C5.57732 4.55559 4.5556 5.5773 4.5556 6.83338C4.5556 8.08945 5.57732 9.11117 6.83339 9.11117C8.08947 9.11117 9.11118 8.08945 9.11118 6.83338C9.11118 5.5773 8.08947 4.55559 6.83339 4.55559ZM6.83339 8.60499C5.85673 8.60499 5.06178 7.81004 5.06178 6.83338C5.06178 5.85671 5.85673 5.06176 6.83339 5.06176C7.81006 5.06176 8.60501 5.85671 8.60501 6.83338C8.60501 7.81004 7.81006 8.60499 6.83339 8.60499Z" fill="#F3F3F3"/>
</svg>
