<svg width="24" height="24" viewBox="0 0 1024 1024" fill="none" xmlns="http://www.w3.org/2000/svg">
<path d="M211 605.131V154.5L420.272 310.867V449.561L321.874 377.348V605.131H211Z" fill="url(#paint0_linear_37_224)"/>
<path d="M518.671 292L518.5 237.5L420.272 310.867V449.561L518.671 377.348V333V292Z" fill="#DDDDDD"/>
<path d="M630 154V210.875V267.25V323.625V380V436.375V492.75V549.125V605.5H518V549.125V492.75V436.375V380V323.625V267.25V237.836L630 154Z" fill="#960A00"/>
<path d="M700 154.5H812V210.875V267.25V323.625V380V436.375V492.75V549.125V605.5H700V549.125V492.75V436.375V380V323.625V267.25V210.875V154.5Z" fill="#960A00"/>
<path d="M211.171 662.729H266.938L339.711 769.647V662.729H396.005V856H339.711L267.333 749.872V856H211.171V662.729ZM442.306 662.729H602.354V703.993H502.159V734.711H595.104V774.13H502.159V812.23H605.255V856H442.306V662.729ZM630.726 662.729H812.264V710.453H751.355V856H691.634V710.453H630.726V662.729Z" fill="#DDDDDD"/>
<defs>
<linearGradient id="paint0_linear_37_224" x1="509.169" y1="399.856" x2="75.2186" y2="399.329" gradientUnits="userSpaceOnUse">
<stop offset="0.642035" stop-color="#DDDDDD"/>
<stop offset="1" stop-color="#DDDDDD" stop-opacity="0"/>
</linearGradient>
</defs>
</svg>
